<?xml version="1.0" encoding="utf-8"?>

<!-- License Agreement at http://iconmonstr.com/license/ -->

<!DOCTYPE svg PUBLIC "-//W3C//DTD SVG 1.1//EN" "http://www.w3.org/Graphics/SVG/1.1/DTD/svg11.dtd">
<svg version="1.1" xmlns="http://www.w3.org/2000/svg" xmlns:xlink="http://www.w3.org/1999/xlink" x="0px" y="0px"
	 width="512px" height="512px" viewBox="0 0 512 512" enable-background="new 0 0 512 512" xml:space="preserve">
<path id="infinity-icon" d="M366.464,150.482c-49.843,0-82.439,40.392-111.626,70.96c-29.187-30.568-59.458-70.96-109.301-70.96
	C88.633,150.482,50,195.846,50,256s38.633,105.518,95.536,105.518c50.493,0,82.883-39.396,111.83-69.118
	c28.947,29.722,58.604,69.118,109.098,69.118C423.366,361.518,462,316.154,462,256S423.366,150.482,366.464,150.482z
	 M145.536,318.74c-33.875,0-54.185-25.56-54.185-62.74c0-37.181,20.31-62.74,54.185-62.74c35.136,0,56.352,31.601,84.572,65.414
	C204.263,289.264,181.774,318.74,145.536,318.74z M366.464,318.74c-36.238,0-58.523-32.743-84.368-63.333
	c28.22-33.812,49.232-62.147,84.368-62.147c33.875,0,54.185,25.559,54.185,62.74C420.648,293.181,400.339,318.74,366.464,318.74z"/>
</svg>
