<?xml version="1.0" encoding="utf-8"?>

<!-- License Agreement at http://iconmonstr.com/license/ -->

<!DOCTYPE svg PUBLIC "-//W3C//DTD SVG 1.1//EN" "http://www.w3.org/Graphics/SVG/1.1/DTD/svg11.dtd">
<svg version="1.1" xmlns="http://www.w3.org/2000/svg" xmlns:xlink="http://www.w3.org/1999/xlink" x="0px" y="0px"
	 width="512px" height="512px" viewBox="0 0 512 512" style="enable-background:new 0 0 512 512;" xml:space="preserve">
<path id="script-5-icon" d="M400.98,206.864c-17.312,23.487-42.98,46.662-71.904,42.879
	c-7.836,10.922-16.562,26.158-26.268,43.86l-22.424,7.026c18.977-36.97,44.328-77.861,71.52-108.927
	c-11.775,7.655-31.125,24.123-47.955,41.483c-15.186-31.66,0.818-60.985,24.023-83.379c-0.664,10.546,4.029,20.172,7.537,25.12
	c-0.594-8.823,0.432-24.579,6.869-38.243c12.926-10.882,24.354-18.715,37.414-25.571c-2.121,7.717-0.314,16.964,2.172,22.734
	c1.127-7.993,5.891-23.095,11.391-29.356c16.291-10.5,40.408-18.888,66.148-18.459c-2.848,15.83-11.162,41.539-22.414,57.49
	c-9.078,5.823-21.082,9.238-30.645,10.872c7.922,2.221,16.799,2.871,24.508,2.299c-5.605,11.762-11.307,22.548-19.922,35.765
	c-11.875,6.623-27.051,9.54-37.432,10.092C380.855,206.344,394.084,208.562,400.98,206.864z M363.352,350.531
	c-0.738,0.484-163.183,102.967-163.183,102.967l-0.018-0.027c-25.313,15.086-55.45,9.07-74.02-9.498
	c-26.845-26.846-22.159-72.343,10.214-93.331l18.57,23.845c-28.159,14.992-17.245,57.496,14.3,57.496
	c25.081,0,39.478-28.771,24.396-48.828c0,0-100.99-129.154-126.172-160.816c-26.242-32.995-16.758-77.227,19.339-94.523
	l142.465-72.917l0.022,0.044c26.344-11.71,57.906-2.109,72.928,23.509c14.613,24.928,8.52,57.563-15.525,75.312l-140.83,79.578
	l-18.603-23.969c28.136-15.033,17.167-57.478-14.339-57.478c-21.359,0-42.345,25.755-21.865,51.948
	c24.579,31.436,124.495,158.655,124.495,158.655c8.988,10.672,13.737,23.686,14.176,36.916c0,0,99.769-62.884,115.138-72.74
	c15.863-10.173,18.797-29.412,7.135-42.976c-0.045-0.052-2.879-3.528-7.438-9.121c10.309-1.273,20.5-4.685,30.447-10.149
	C400.602,295.801,388.793,333.849,363.352,350.531z M145.506,131.449c17.389,11.146,28.407,30.66,27.891,52.463l92.795-52.56
	c14.521-8.322,16.873-24.787,10.576-36.839c-7.301-13.976-23.486-17.664-35.743-11.954L145.506,131.449z M248.381,310.319
	c4.459-8.804,12.146-24.093,19.613-38.333l-62.074,36.371l13.715,18.805L248.381,310.319z M177.213,270.481l13.715,18.806
	l90.592-53.08l-14.277-18.475L177.213,270.481z"/>
</svg>
