<?xml version="1.0" encoding="utf-8"?>

<!-- License Agreement at http://iconmonstr.com/license/ -->

<!DOCTYPE svg PUBLIC "-//W3C//DTD SVG 1.1//EN" "http://www.w3.org/Graphics/SVG/1.1/DTD/svg11.dtd">
<svg version="1.1" xmlns="http://www.w3.org/2000/svg" xmlns:xlink="http://www.w3.org/1999/xlink" x="0px" y="0px"
	 width="512px" height="512px" viewBox="0 0 512 512" enable-background="new 0 0 512 512" xml:space="preserve">
<path id="magnet-icon" d="M348.255,397.373C390.221,346.2,461.91,257.327,461.91,257.327l-65.935-53.083
	c0,0-49.053,60.483-112.789,138.999c-74.015,91.175-203.964-41.367-114.516-114.52c78.283-64.019,138.994-112.791,138.994-112.791
	L254.583,50c0,0-88.8,71.773-140.043,113.653C-73.166,317.062,193.666,585.883,348.255,397.373z M429.344,260.842l-29.17,36.24
	l-29.881-23.988l29.203-36.287L429.344,260.842z M251.066,82.567l24.039,29.847l-36.286,29.205l-23.989-29.881L251.066,82.567z"/>
</svg>
