<?xml version="1.0" encoding="utf-8"?>

<!-- License Agreement at http://iconmonstr.com/license/ -->

<!DOCTYPE svg PUBLIC "-//W3C//DTD SVG 1.1//EN" "http://www.w3.org/Graphics/SVG/1.1/DTD/svg11.dtd">
<svg version="1.1" xmlns="http://www.w3.org/2000/svg" xmlns:xlink="http://www.w3.org/1999/xlink" x="0px" y="0px"
	 width="512px" height="512px" viewBox="0 0 512 512" style="enable-background:new 0 0 512 512;" xml:space="preserve">
<path id="flask-3-icon" d="M174.75,70c0-11.046,8.954-20,20-20h122.5c11.046,0,20,8.954,20,20s-8.954,20-20,20h-122.5
	C183.704,90,174.75,81.046,174.75,70z M369.958,462H142.043c-30.864,0-51.178-32.304-37.802-60.12l64.846-134.867
	c18.044-37.527,27.413-78.634,27.413-120.273V120h39.718c0,28.377,3.375,79.919-22.002,143.667h55.786l70.881,148.776
	c7.824,16.363,30.946,7.528,22.841-9.311c-7.278-15.119-20.821-43.835-56.859-118.785c-35.925-74.717-31.14-136.013-31.14-164.348
	H315.5v26.738c0,41.641,9.369,82.747,27.413,120.275l64.847,134.865C421.134,429.696,400.824,462,369.958,462z M210.12,388.046
	c0-12.302-9.974-22.274-22.275-22.274s-22.275,9.973-22.275,22.274c0,12.303,9.974,22.275,22.275,22.275
	S210.12,400.349,210.12,388.046z M241.441,335.852c0-7.518-6.095-13.613-13.612-13.613s-13.612,6.096-13.612,13.613
	s6.095,13.612,13.612,13.612S241.441,343.369,241.441,335.852z M279.529,393.491c0-9.567-7.758-17.324-17.325-17.324
	c-9.566,0-17.325,7.757-17.325,17.324s7.759,17.325,17.325,17.325C271.771,410.816,279.529,403.059,279.529,393.491z"/>
</svg>
