<?xml version="1.0" encoding="utf-8"?>

<!-- License Agreement at http://iconmonstr.com/license/ -->

<!DOCTYPE svg PUBLIC "-//W3C//DTD SVG 1.1//EN" "http://www.w3.org/Graphics/SVG/1.1/DTD/svg11.dtd">
<svg version="1.1" xmlns="http://www.w3.org/2000/svg" xmlns:xlink="http://www.w3.org/1999/xlink" x="0px" y="0px"
	 width="512px" height="512px" viewBox="0 0 512 512" enable-background="new 0 0 512 512" xml:space="preserve">
<path id="rocket-11-icon" d="M226.164,462c44.059-22.615,69.745-71.211,66.968-105.376c-17.644,11.991-47.522,26.563-63.338,31.558
	C247.511,416.379,242.736,439.969,226.164,462z M124.518,282.906c4.995-15.816,19.568-45.695,31.559-63.339
	c-34.167-2.779-82.759,22.908-105.376,66.969C72.729,269.965,96.322,265.188,124.518,282.906z M211.801,369.199l-68.235-68.236
	c26.034-78.803,101.64-178.221,235.69-167.808C390.576,267.301,293.293,340.591,211.801,369.199z M259.537,279.131
	c7.17-7.171,7.17-18.798,0-25.969c-7.172-7.17-18.797-7.17-25.969,0.003c-7.17,7.17-7.172,18.796,0,25.966
	C240.739,286.302,252.365,286.302,259.537,279.131z M318.664,236.881c11.832-11.83,11.834-31.017,0.002-42.848
	c-11.834-11.831-31.018-11.831-42.85,0c-11.832,11.833-11.83,31.016,0,42.849C287.65,248.713,306.832,248.713,318.664,236.881z
	 M83.853,396.513l-12.445-12.445l60.533-60.532l12.445,12.445L83.853,396.513z M146.119,426.779l-12.445-12.445l44.533-44.533
	l12.445,12.445L146.119,426.779z M82.119,444.646L69.674,432.2l70-69.999l12.445,12.445L82.119,444.646z M424.294,216.154
	c-3.231,10.579-11.512,18.858-22.09,22.09c10.578,3.231,18.858,11.511,22.09,22.09c3.231-10.579,11.511-18.858,22.09-22.09
	C435.805,235.013,427.525,226.733,424.294,216.154L424.294,216.154z M173.508,104.846c-4.231,13.852-15.072,24.692-28.923,28.923
	c13.851,4.231,24.691,15.071,28.923,28.923c4.23-13.852,15.071-24.691,28.923-28.923
	C188.579,129.538,177.738,118.697,173.508,104.846L173.508,104.846z M142.251,50c-3.394,11.108-12.088,19.802-23.195,23.194
	c11.107,3.394,19.802,12.087,23.195,23.195c3.393-11.108,12.086-19.802,23.194-23.195C154.337,69.802,145.644,61.108,142.251,50
	L142.251,50z M234.437,50c-5.413,17.723-19.284,31.593-37.006,37.006c17.722,5.413,31.593,19.284,37.006,37.006
	c5.413-17.722,19.284-31.592,37.006-37.006C253.721,81.594,239.85,67.723,234.437,50L234.437,50z M424.294,283.418
	c-5.413,17.723-19.285,31.593-37.006,37.006c17.721,5.413,31.593,19.284,37.006,37.006c5.413-17.722,19.284-31.592,37.006-37.006
	C443.578,315.012,429.707,301.141,424.294,283.418L424.294,283.418z"/>
</svg>
