<?xml version="1.0" encoding="utf-8"?>

<!-- The icon can be used freely in both personal and commercial projects with no attribution required, but always appreciated. 
You may NOT sub-license, resell, rent, redistribute or otherwise transfer the icon without express written permission from iconmonstr.com -->

<!DOCTYPE svg PUBLIC "-//W3C//DTD SVG 1.1//EN" "http://www.w3.org/Graphics/SVG/1.1/DTD/svg11.dtd">
<svg version="1.1" xmlns="http://www.w3.org/2000/svg" xmlns:xlink="http://www.w3.org/1999/xlink" x="0px" y="0px"
	 width="512px" height="512px" viewBox="0 0 512 512" enable-background="new 0 0 512 512" xml:space="preserve">
<path id="virus-2-icon" d="M305.384,174.899c-5.283,0-10.159,1.741-14.085,4.682c-8.059,6.032-17.86,9.313-27.928,9.313
	c-8.208,0-15.66-4.798-19.059-12.272c-3.934-8.669-1.716-17.827,4.155-23.698c7.145-7.143,16.339-11.729,26.335-13.165
	c4.855-0.698,9.536-2.914,13.271-6.649c9.192-9.191,9.191-24.094-0.001-33.286c-9.192-9.191-24.094-9.192-33.288,0
	c-3.734,3.734-5.949,8.414-6.646,13.268c-1.433,9.965-6.043,19.214-13.163,26.333c-6.012,6.012-15.062,7.808-22.913,4.547
	c-0.028-0.012-0.055-0.022-0.081-0.034c-7.852-3.248-12.979-10.912-12.979-19.409c0-10.101,3.26-19.846,9.313-27.931
	c2.938-3.926,4.682-8.801,4.682-14.084c0-12.999-10.54-23.537-23.538-23.537s-23.538,10.538-23.538,23.537
	c0,5.283,1.743,10.157,4.682,14.084c6.034,8.058,9.312,17.859,9.312,27.927c0,8.498-5.125,16.166-12.976,19.413
	c-0.027,0.012-0.054,0.022-0.082,0.034c-7.849,3.26-16.898,1.466-22.91-4.545c-7.143-7.142-11.729-16.336-13.167-26.336
	c-0.696-4.854-2.912-9.534-6.648-13.268c-9.189-9.191-24.092-9.191-33.285,0c-9.191,9.192-9.191,24.095,0,33.286
	c3.734,3.736,8.414,5.951,13.27,6.649c9.961,1.431,19.216,6.043,26.332,13.162c6.014,6.012,7.808,15.062,4.546,22.913
	c-0.011,0.027-0.023,0.054-0.033,0.081c-3.247,7.852-10.917,12.979-19.412,12.979c-10.103,0-19.841-3.26-27.929-9.313
	c-3.926-2.94-8.801-4.682-14.084-4.682c-13,0-23.536,10.539-23.536,23.538c0,12.998,10.536,23.537,23.536,23.537
	c5.283,0,10.158-1.741,14.084-4.682c8.059-6.032,17.86-9.312,27.928-9.312c8.496,0,16.165,5.125,19.413,12.978
	c0.01,0.028,0.022,0.054,0.032,0.082c3.263,7.849,1.469,16.9-4.541,22.909c-7.144,7.145-16.339,11.73-26.336,13.166
	c-4.855,0.697-9.535,2.912-13.271,6.65c-9.19,9.189-9.19,24.094,0.001,33.285c9.193,9.189,24.095,9.189,33.285,0
	c3.736-3.734,5.952-8.414,6.648-13.271c1.434-9.961,6.046-19.213,13.165-26.33c6.011-6.014,15.061-7.809,22.911-4.546
	c0.026,0.009,0.056,0.023,0.083,0.032c7.849,3.248,12.976,10.914,12.976,19.408c0,10.102-3.257,19.846-9.312,27.932
	c-2.938,3.928-4.682,8.803-4.682,14.086c0,12.998,10.54,23.535,23.538,23.535s23.538-10.537,23.538-23.535
	c0-5.299-1.753-10.188-4.707-14.119c-6.016-8.006-9.288-17.754-9.288-27.77c0-8.563,5.224-16.641,13.726-19.805
	c7.707-2.922,16.412-1.054,22.241,4.775c7.142,7.143,11.731,16.34,13.169,26.338c0.696,4.855,2.913,9.535,6.647,13.27
	c9.192,9.189,24.094,9.189,33.286,0c9.192-9.191,9.193-24.096,0.001-33.285c-3.748-3.746-8.44-5.965-13.311-6.656
	c-9.919-1.406-19.127-5.99-26.211-13.076c-6.049-6.051-7.867-15.162-4.596-23.069c0.001-0.001,0.001-0.003,0.002-0.005
	c3.247-7.852,10.915-12.978,19.411-12.978c10.101,0,19.842,3.258,27.93,9.312c3.926,2.94,8.801,4.682,14.085,4.682
	c12.998,0,23.535-10.539,23.535-23.537C328.919,185.438,318.382,174.899,305.384,174.899z M166.627,229.506
	c-6.355,0-11.511-5.152-11.511-11.508s5.155-11.509,11.511-11.509s11.508,5.153,11.508,11.509S172.982,229.506,166.627,229.506z
	 M181.294,192.979c-9.97,0-18.053-8.083-18.053-18.053s8.083-18.053,18.053-18.053c9.972,0,18.053,8.083,18.053,18.053
	S191.266,192.979,181.294,192.979z M215.311,227.476c-8.44,0-15.288-6.846-15.288-15.288c0-8.445,6.848-15.289,15.288-15.289
	c8.444,0,15.29,6.844,15.29,15.289C230.601,220.63,223.755,227.476,215.311,227.476z M440.104,387.255
	c-8.498-6.543-20.392-2.271-27.735-7.926l-0.009-0.006c-5.839-4.494-8.603-11.932-7.12-19.15c0-0.004,0.002-0.01,0.003-0.012
	c1.415-6.893,6.682-12.375,13.515-14.061c9.51-2.342,19.512,5.703,29.39,3.266c9.764-2.402,15.724-12.268,13.322-22.031
	c-2.408-9.762-12.273-15.723-22.037-13.316c-9.842,2.426-14.909,14.537-23.798,16.727l-0.018,0.004
	c-7.155,1.764-14.691-0.715-19.414-6.373c-0.006-0.006-0.01-0.016-0.018-0.021c-4.499-5.389-5.501-12.904-2.566-19.281l0.011-0.02
	c4.346-9.441,16.625-11.42,20.953-20.816c4.205-9.133,0.212-19.945-8.921-24.15s-19.943-0.209-24.15,8.924
	c-4.425,9.613,2.339,19.838-2.026,29.318l-0.013,0.023c-2.976,6.467-9.407,10.65-16.526,10.76c-0.072,0-0.144,0.002-0.215,0.002
	c-7.135,0.145-13.733-3.828-16.938-10.201l-0.212-0.42c-4.113-8.178,2.32-18.648-2.439-28.105
	c-4.518-8.982-15.461-12.598-24.443-8.08s-12.6,15.463-8.081,24.445c4.762,9.467,16.863,10.6,21.082,18.988l0.012,0.021
	c3.247,6.461,2.511,14.217-1.888,19.953c-0.008,0.008-0.017,0.018-0.022,0.027c-4.352,5.68-11.593,8.369-18.595,6.896l-0.021-0.006
	c-9.806-2.061-13.889-13.703-24.149-15.861c-9.839-2.068-19.491,4.234-21.559,14.076c-2.069,9.838,4.23,19.49,14.07,21.559
	c10.472,2.199,18.407-6.549,28.114-4.508l0.021,0.004c7.156,1.504,12.829,6.965,14.606,14.059c0.004,0.012,0.006,0.023,0.008,0.035
	c1.726,6.852-0.652,14.102-6.099,18.604l-0.02,0.014c-7.694,6.361-19.475,2.635-28.015,9.686c-7.753,6.4-8.842,17.879-2.44,25.635
	c6.406,7.746,17.879,8.842,25.634,2.436c8.901-7.354,6.771-19.055,14.365-25.326l0.018-0.014c5.658-4.678,13.497-5.711,20.18-2.666
	c0.013,0.004,0.022,0.01,0.033,0.014c6.415,2.916,10.59,9.271,10.71,16.314l0.004,0.023c0.168,9.893-10.121,17.957-9.94,28.416
	c0.174,10.051,8.466,18.059,18.517,17.889c10.056-0.176,18.063-8.467,17.888-18.521c-0.187-10.814-10.629-17.814-10.798-27.461
	v-0.01c-0.127-7.354,3.961-14.141,10.52-17.473c0.006-0.006,0.012-0.006,0.016-0.008c6.28-3.195,13.857-2.496,19.44,1.797
	l0.019,0.018c7.866,6.055,7.01,18.158,15.575,24.748c7.967,6.131,19.396,4.643,25.53-3.324
	C449.562,404.817,448.075,393.388,440.104,387.255z M342.975,364.388c-3.883-1.787-5.576-6.381-3.791-10.26
	c1.787-3.879,6.38-5.576,10.261-3.789s5.574,6.377,3.791,10.26C351.447,364.476,346.856,366.173,342.975,364.388z M362.191,346.214
	c-6.086-2.801-8.748-10.008-5.947-16.094c2.804-6.088,10.012-8.748,16.096-5.947c6.087,2.805,8.748,10.008,5.945,16.096
	C375.481,346.353,368.278,349.019,362.191,346.214z M373.262,376.829c-5.153-2.373-7.408-8.475-5.034-13.629
	c2.373-5.152,8.474-7.406,13.63-5.033c5.153,2.371,7.408,8.475,5.035,13.629C384.521,376.95,378.417,379.202,373.262,376.829z"/>
</svg>
